<svg xmlns="http://www.w3.org/2000/svg" xmlns:xlink="http://www.w3.org/1999/xlink" viewBox="0 0 156 80"><defs><style>.cls-1{fill:none;}.cls-2{fill:#58595b;}.cls-3{fill:url(#Orange_Yellow);}.cls-4{fill:url(#linear-gradient);}.cls-5{fill:url(#linear-gradient-2);}.cls-6{fill:url(#linear-gradient-3);}.cls-7{fill:url(#linear-gradient-4);}.cls-8{fill:url(#linear-gradient-5);}.cls-9{fill:url(#linear-gradient-6);}.cls-10{fill:url(#linear-gradient-7);}.cls-11{fill:url(#Orange_Yellow-2);}.cls-12{fill:url(#linear-gradient-8);}</style><linearGradient id="Orange_Yellow" x1="11.15" y1="23.39" x2="50.37" y2="23.39" gradientUnits="userSpaceOnUse"><stop offset="0" stop-color="#fff23a"/><stop offset="0.04" stop-color="#fee62d"/><stop offset="0.12" stop-color="#fed41a"/><stop offset="0.2" stop-color="#fdc90f"/><stop offset="0.28" stop-color="#fdc60b"/><stop offset="0.67" stop-color="#f28f3f"/><stop offset="0.89" stop-color="#ed693c"/><stop offset="1" stop-color="#e83e39"/></linearGradient><linearGradient id="linear-gradient" x1="39.86" y1="23.39" x2="61.91" y2="23.39" gradientUnits="userSpaceOnUse"><stop offset="0" stop-color="#d0d2d3"/><stop offset="1" stop-color="#929497"/></linearGradient><linearGradient id="linear-gradient-2" x1="46.09" y1="37.28" x2="57.54" y2="37.28" xlink:href="#linear-gradient"/><linearGradient id="linear-gradient-3" x1="28.52" y1="28.64" x2="39.26" y2="28.64" xlink:href="#linear-gradient"/><linearGradient id="linear-gradient-4" x1="34.99" y1="40.02" x2="51.9" y2="40.02" xlink:href="#linear-gradient"/><linearGradient id="linear-gradient-5" x1="5.64" y1="26.37" x2="17.13" y2="26.37" xlink:href="#linear-gradient"/><linearGradient id="linear-gradient-6" x1="12.87" y1="41.78" x2="33.03" y2="41.78" xlink:href="#linear-gradient"/><linearGradient id="linear-gradient-7" x1="1.33" y1="29.38" x2="5.02" y2="29.38" xlink:href="#linear-gradient"/><linearGradient id="Orange_Yellow-2" x1="0.75" y1="48.48" x2="46.18" y2="48.48" xlink:href="#Orange_Yellow"/><linearGradient id="linear-gradient-8" x1="57.61" y1="34.42" x2="61.67" y2="34.42" xlink:href="#linear-gradient"/></defs><title>logo</title><g id="Layer_2" data-name="Layer 2"><g id="Layer_1-2" data-name="Layer 1"><rect class="cls-1" width="156" height="80"/><path class="cls-2" d="M80.38,36.57a3.21,3.21,0,0,0,.59,1.6,3.48,3.48,0,0,0,2.79,1,6,6,0,0,0,1.91-.25,1.83,1.83,0,0,0,1.4-1.81,1.33,1.33,0,0,0-.69-1.2,7.18,7.18,0,0,0-2.17-.73l-1.69-.37a10.57,10.57,0,0,1-3.42-1.2,3.8,3.8,0,0,1-1.58-3.39,4.48,4.48,0,0,1,1.54-3.48,6.56,6.56,0,0,1,4.54-1.39,6.93,6.93,0,0,1,4.27,1.31,4.65,4.65,0,0,1,1.85,3.8H86.58a2.26,2.26,0,0,0-1.26-2A4.34,4.34,0,0,0,83.37,28a3.67,3.67,0,0,0-2.06.51A1.59,1.59,0,0,0,80.54,30a1.33,1.33,0,0,0,.76,1.25,9.16,9.16,0,0,0,2.07.65l2.75.65a7,7,0,0,1,2.7,1.13,3.84,3.84,0,0,1,1.4,3.19,4.47,4.47,0,0,1-1.66,3.56,7,7,0,0,1-4.68,1.41A7.64,7.64,0,0,1,79,40.4a4.61,4.61,0,0,1-1.77-3.83Z"/><path class="cls-2" d="M96.84,34.36a5.12,5.12,0,0,0,1.21-.26.92.92,0,0,0,.65-.86,1,1,0,0,0-.5-1A3.15,3.15,0,0,0,96.73,32a1.89,1.89,0,0,0-1.53.53,2.1,2.1,0,0,0-.43,1.06H91.85a4.42,4.42,0,0,1,.85-2.49c.8-1,2.18-1.53,4.13-1.53a7.42,7.42,0,0,1,3.39.75,2.88,2.88,0,0,1,1.48,2.84v5.3c0,.37,0,.82,0,1.34a1.66,1.66,0,0,0,.18.81,1.18,1.18,0,0,0,.45.35v.44H99.06a3,3,0,0,1-.19-.66c0-.2-.06-.43-.09-.7a5.88,5.88,0,0,1-1.45,1.16,4.3,4.3,0,0,1-2.21.56,3.84,3.84,0,0,1-2.61-.89,3.19,3.19,0,0,1-1-2.54,3.3,3.3,0,0,1,1.65-3.09,7.62,7.62,0,0,1,2.68-.74Zm1.85,1.41a2.93,2.93,0,0,1-.59.29,3.86,3.86,0,0,1-.81.21l-.69.13a4.66,4.66,0,0,0-1.39.41,1.39,1.39,0,0,0-.71,1.28,1.34,1.34,0,0,0,.44,1.12,1.65,1.65,0,0,0,1.06.35A3.14,3.14,0,0,0,97.82,39a2.43,2.43,0,0,0,.87-2.09Z"/><path class="cls-2" d="M110.47,30a3.6,3.6,0,0,1,1.32,1.28V25.78h3.07V41.39h-2.94v-1.6a4.31,4.31,0,0,1-1.47,1.5,4.16,4.16,0,0,1-2.06.46A4.27,4.27,0,0,1,105,40.11a6.29,6.29,0,0,1-1.38-4.2A7.21,7.21,0,0,1,105,31.26a4.41,4.41,0,0,1,3.64-1.7A3.73,3.73,0,0,1,110.47,30Zm.74,8.23a4.17,4.17,0,0,0,.67-2.47,3.8,3.8,0,0,0-1.07-3,2.3,2.3,0,0,0-1.53-.55,2.11,2.11,0,0,0-1.94,1,4.6,4.6,0,0,0-.62,2.49,4.62,4.62,0,0,0,.63,2.56,2.13,2.13,0,0,0,1.91,1A2.21,2.21,0,0,0,111.21,38.25Z"/><path class="cls-2" d="M125.14,30.07a4.67,4.67,0,0,1,2,1.71,5.59,5.59,0,0,1,.92,2.39,13.15,13.15,0,0,1,.1,2.29h-8.41a2.78,2.78,0,0,0,1.2,2.44,3.1,3.1,0,0,0,1.67.43,2.52,2.52,0,0,0,1.68-.53,2.56,2.56,0,0,0,.62-.79H128a3.86,3.86,0,0,1-1.12,2.09,5.64,5.64,0,0,1-4.35,1.68,6.27,6.27,0,0,1-4.07-1.42q-1.77-1.43-1.77-4.62a6.23,6.23,0,0,1,1.6-4.61,5.55,5.55,0,0,1,4.13-1.6A6.64,6.64,0,0,1,125.14,30.07Zm-4.52,2.61a3.14,3.14,0,0,0-.81,1.79H125a2.57,2.57,0,0,0-.81-1.83,2.67,2.67,0,0,0-1.79-.62A2.37,2.37,0,0,0,120.62,32.68Z"/><path class="cls-2" d="M136.1,29.56l.26,0v3.1l-.51,0h-.36A2.52,2.52,0,0,0,133,33.81a4.68,4.68,0,0,0-.35,2.06v5.52h-3V29.83h2.88v2a6.59,6.59,0,0,1,1.22-1.58,3.35,3.35,0,0,1,2.21-.71Z"/><path class="cls-2" d="M142.71,34.36a5.25,5.25,0,0,0,1.21-.26.92.92,0,0,0,.65-.86,1,1,0,0,0-.5-1A3.15,3.15,0,0,0,142.6,32a1.93,1.93,0,0,0-1.54.53,2.29,2.29,0,0,0-.43,1.06h-2.91a4.42,4.42,0,0,1,.85-2.49c.8-1,2.18-1.53,4.13-1.53a7.42,7.42,0,0,1,3.39.75,2.88,2.88,0,0,1,1.48,2.84v5.3c0,.37,0,.82,0,1.34a1.66,1.66,0,0,0,.18.81,1.18,1.18,0,0,0,.45.35v.44h-3.29a3,3,0,0,1-.19-.66,5.75,5.75,0,0,1-.09-.7,6.07,6.07,0,0,1-1.45,1.16,4.31,4.31,0,0,1-2.22.56,3.83,3.83,0,0,1-2.6-.89,3.19,3.19,0,0,1-1-2.54A3.3,3.3,0,0,1,139,35.23a7.62,7.62,0,0,1,2.67-.74Zm1.85,1.41a3.22,3.22,0,0,1-.59.29,4.23,4.23,0,0,1-.81.21l-.69.13a4.57,4.57,0,0,0-1.39.41,1.39,1.39,0,0,0-.71,1.28,1.31,1.31,0,0,0,.44,1.12,1.65,1.65,0,0,0,1.06.35,3.16,3.16,0,0,0,1.82-.57,2.43,2.43,0,0,0,.87-2.09Z"/><path class="cls-2" d="M149,32.09V29.94h1.61V26.72h3v3.22h1.88v2.15h-1.88V38.2a1.41,1.41,0,0,0,.18.89,2.09,2.09,0,0,0,1.11.17h.29l.3,0V41.5l-1.43,0a3.87,3.87,0,0,1-2.93-.74,2.21,2.21,0,0,1-.51-1.6V32.09Z"/><path class="cls-2" d="M77.47,48.38h1.66l5.25,8.41V48.38h1.34V58.76H84.14l-5.32-8.4v8.4H77.47Z"/><path class="cls-2" d="M87.76,48.38h1.29v1.44H87.76Zm0,2.85h1.29v7.53H87.76Z"/><path class="cls-2" d="M95.2,51.5a3.3,3.3,0,0,1,.74.72v-1h1.17v6.89a5.08,5.08,0,0,1-.42,2.27,3.05,3.05,0,0,1-3,1.55,3.7,3.7,0,0,1-2.06-.55,2.12,2.12,0,0,1-.93-1.72H92a1.43,1.43,0,0,0,.37.79,2.33,2.33,0,0,0,3.27-.61,5.85,5.85,0,0,0,.25-2.17,2.5,2.5,0,0,1-.92.86A3.25,3.25,0,0,1,91.4,58a3.8,3.8,0,0,1-.93-2.88,4.37,4.37,0,0,1,.93-3,2.86,2.86,0,0,1,2.25-1.07A2.69,2.69,0,0,1,95.2,51.5Zm.16,1.36a1.87,1.87,0,0,0-1.48-.68A1.82,1.82,0,0,0,92,53.44a5.07,5.07,0,0,0-.26,1.76,3.12,3.12,0,0,0,.52,1.95,1.7,1.7,0,0,0,1.4.67,2,2,0,0,0,1.93-1.24A4.12,4.12,0,0,0,95.94,55,3.2,3.2,0,0,0,95.36,52.86Z"/><path class="cls-2" d="M103.74,51.4a2.87,2.87,0,0,1,1.15,1,3.23,3.23,0,0,1,.51,1.34,8.36,8.36,0,0,1,.11,1.66H100a3.2,3.2,0,0,0,.54,1.85,1.81,1.81,0,0,0,1.58.7,2,2,0,0,0,1.59-.66,2.36,2.36,0,0,0,.48-.88h1.25a2.49,2.49,0,0,1-.33.93,3.3,3.3,0,0,1-.63.84,3,3,0,0,1-1.43.76,4.67,4.67,0,0,1-1,.11,3.19,3.19,0,0,1-2.4-1,4,4,0,0,1-1-2.88,4.36,4.36,0,0,1,1-3A3.26,3.26,0,0,1,102.18,51,3.45,3.45,0,0,1,103.74,51.4Zm.47,3a3.41,3.41,0,0,0-.36-1.32,1.86,1.86,0,0,0-1.75-.92,1.93,1.93,0,0,0-1.47.64,2.33,2.33,0,0,0-.63,1.6Z"/><path class="cls-2" d="M107.11,51.19h1.21V52.5a3,3,0,0,1,.73-.93,1.91,1.91,0,0,1,1.33-.55h.13l.28,0V52.4l-.2,0h-.21a1.82,1.82,0,0,0-1.48.61,2.21,2.21,0,0,0-.52,1.43v4.35h-1.27Z"/><path class="cls-2" d="M111.9,48.38h1.29v1.44H111.9Zm0,2.85h1.29v7.53H111.9Z"/><path class="cls-2" d="M119.17,54.18a.7.7,0,0,0,.59-.37,1.24,1.24,0,0,0,.08-.49,1,1,0,0,0-.46-.94,2.45,2.45,0,0,0-1.33-.3,1.68,1.68,0,0,0-1.41.54,1.75,1.75,0,0,0-.3.88h-1.19a2.17,2.17,0,0,1,.91-1.94,3.66,3.66,0,0,1,2-.55,4.1,4.1,0,0,1,2.17.51,1.73,1.73,0,0,1,.83,1.58v4.36a.61.61,0,0,0,.08.32.4.4,0,0,0,.34.12h.19l.23,0v.94a2.54,2.54,0,0,1-.45.1,2.46,2.46,0,0,1-.43,0,1.06,1.06,0,0,1-1-.47,1.86,1.86,0,0,1-.22-.7,3.2,3.2,0,0,1-1.12.88,3.43,3.43,0,0,1-1.6.38,2.41,2.41,0,0,1-1.72-.64,2.11,2.11,0,0,1-.67-1.6,2.08,2.08,0,0,1,.66-1.64,3.17,3.17,0,0,1,1.72-.71Zm-2.68,3.44a1.52,1.52,0,0,0,1,.32,3,3,0,0,0,1.3-.31,1.77,1.77,0,0,0,1.06-1.69v-1a2.41,2.41,0,0,1-.6.25,7,7,0,0,1-.72.14l-.78.1a2.91,2.91,0,0,0-1,.29,1.11,1.11,0,0,0-.59,1.06A1,1,0,0,0,116.49,57.62Z"/><path class="cls-2" d="M127.22,48.38h1.27V58.76h-1.27Z"/><path class="cls-2" d="M130.66,49.08h1.28v2.11h1.21v1h-1.21v4.94a.53.53,0,0,0,.27.53,1.05,1.05,0,0,0,.5.08h.2l.24,0v1a2.26,2.26,0,0,1-.45.1l-.52,0a1.37,1.37,0,0,1-1.2-.45,2,2,0,0,1-.32-1.19v-5h-1v-1h1Z"/><path class="cls-2" d="M138.6,51.43a3.23,3.23,0,0,1,.77.74V48.34h1.23V58.76h-1.15v-1a2.8,2.8,0,0,1-1,1A3,3,0,0,1,137,59a2.82,2.82,0,0,1-2.2-1.06,4.19,4.19,0,0,1-.92-2.83,4.91,4.91,0,0,1,.84-2.87,2.77,2.77,0,0,1,2.42-1.21A2.63,2.63,0,0,1,138.6,51.43Zm-2.85,5.67a1.79,1.79,0,0,0,1.65.82,1.73,1.73,0,0,0,1.45-.76,3.56,3.56,0,0,0,.57-2.18,3.23,3.23,0,0,0-.58-2.12,1.85,1.85,0,0,0-1.45-.69,1.91,1.91,0,0,0-1.56.73,3.36,3.36,0,0,0-.6,2.17A3.67,3.67,0,0,0,135.75,57.1Z"/><polygon class="cls-3" points="50.37 30.3 42.95 30.3 34.38 21.74 19.55 21.74 28.07 30.3 20.66 30.3 11.15 20.74 15.51 16.49 29.13 16.49 36.55 16.49 50.37 30.3"/><polygon class="cls-4" points="61.91 30.3 54.32 30.3 39.86 16.49 47.46 16.49 61.91 30.3"/><polygon class="cls-5" points="57.53 37.46 53.77 41.12 46.09 33.44 53.52 33.44 57.53 37.46"/><polygon class="cls-6" points="39.26 30.3 31.84 30.3 28.52 26.98 35.95 26.98 39.26 30.3"/><polygon class="cls-7" points="51.9 42.94 48.14 46.6 34.98 33.44 42.41 33.44 51.9 42.94"/><polygon class="cls-8" points="17.13 30.3 9.77 30.3 5.64 26.11 9.4 22.45 17.13 30.3"/><polygon class="cls-9" points="33.03 46.43 29.3 50.12 12.87 33.44 20.23 33.44 33.03 46.43"/><polygon class="cls-10" points="5.02 30.3 1.33 30.3 3.2 28.47 5.02 30.3"/><polygon class="cls-11" points="42.42 52.17 46.18 48.51 42.36 44.67 42.36 44.67 31.2 33.44 23.79 33.44 38.63 48.36 30.78 56.12 8.16 33.44 0.75 33.44 30.75 63.51 34.51 59.86 34.51 59.85 42.41 52.17 42.42 52.17"/><polygon class="cls-12" points="61.67 33.44 57.61 33.44 59.66 35.4 61.67 33.44"/></g></g></svg>